<svg xmlns="http://www.w3.org/2000/svg" viewBox="0 0 249 280" width="498" height="560" role="img" aria-label="Uyir AI mark" xmlns:c2pa="http://c2pa.org/manifest"><metadata><c2pa:manifest>AAAWgmp1bWIAAAAeanVtZGMycGEAEQAQgAAAqgA4m3EDYzJwYQAAABZcanVtYgAAAEdqdW1kYzJtYQARABCAAACqADibcQN1cm46YzJwYTo3ODIyNDkwYi01ODZhLTRiZjktYjY0MS03ZDhhODQwMjhiMjgAAAADl2p1bWIAAAApanVtZGMyYXMAEQAQgAAAqgA4m3EDYzJwYS5hc3NlcnRpb25zAAAAALxqdW1iAAAARGp1bWRjYm9yABEAEIAAAKoAOJtxE2MycGEuaW5ncmVkaWVudC52MwAAAAAYYzJzaJ4tbUoqspvsiFaDVUb6D8sAAABwY2JvcqNpZGM6Zm9ybWF0bWltYWdlL3N2Zyt4bWxqaW5zdGFuY2VJRHgseG1wOmlpZDo0ZWU5NDVkNC1mZWQ5LTRmOWItYTkxMy1hYjM0NDZiMjEyODlscmVsYXRpb25zaGlwaHBhcmVudE9mAAAB4mp1bWIAAABBanVtZGNib3IAEQAQgAAAqgA4m3ETYzJwYS5hY3Rpb25zLnYyAAAAABhjMnNo5fMieT641z+yP+kUJuWrugAAAZljYm9yomdhY3Rpb25zgqJmYWN0aW9ua2MycGEub3BlbmVkanBhcmFtZXRlcnOha2luZ3JlZGllbnRzgaJjdXJseC1zZWxmI2p1bWJmPWMycGEuYXNzZXJ0aW9ucy9jMnBhLmluZ3JlZGllbnQudjNkaGFzaFggbnE+cu1hAAJD9J0zpuFUZ+Np0PPKGNTSAN7KuOIdx6WkZmFjdGlvbngdY29tLmFudGhyb3BpYy5jbGF1ZGUucHJvdmlkZWRqcGFyYW1ldGVyc6F4H2NvbS5hbnRocm9waWMub3JpZ2luLWNvbmZpZGVuY2VndW5rbm93bmtkZXNjcmlwdGlvbnhmQ2xhdWRlIHByb3ZpZGVkIHRoaXMgZmlsZSBhdCB0aGUgcmVxdWVzdCBvZiBhIHVzZXIgYW5kIG1heSBoYXZlIGNyZWF0ZWQgb3IgbW9kaWZpZWQgdGhlIGZpbGUgY29udGVudHMubXNvZnR3YXJlQWdlbnShZG5hbWVmQ2xhdWRlcmFsbEFjdGlvbnNJbmNsdWRlZPUAAADIanVtYgAAAEBqdW1kY2JvcgARABCAAACqADibcRNjMnBhLmhhc2guZGF0YQAAAAAYYzJzaCGfcjEmlyJp0aYXcFs4814AAACAY2JvcqVjYWxnZnNoYTI1NmNwYWRNAAAAAAAAAAAAAAAAAGRoYXNoWCCg0zi9uZljuGoUH/b5EusVv1UaKmetQ33fG7uI3BWRomRuYW1lbmp1bWJmIG1hbmlmZXN0amV4Y2x1c2lvbnOBomVzdGFydBi7Zmxlbmd0aBkeBAAAAj5qdW1iAAAAJ2p1bWRjMmNsABEAEIAAAKoAOJtxA2MycGEuY2xhaW0udjIAAAACD2Nib3KlY2FsZ2ZzaGEyNTZpc2lnbmF0dXJleE1zZWxmI2p1bWJmPS9jMnBhL3VybjpjMnBhOjc4MjI0OTBiLTU4NmEtNGJmOS1iNjQxLTdkOGE4NDAyOGIyOC9jMnBhLnNpZ25hdHVyZWppbnN0YW5jZUlEeCx4bXA6aWlkOmRlODg0ZTcwLTk3Y2QtNDczOS1iNWE2LTRmYjdiOTFiMDQ4Y3JjcmVhdGVkX2Fzc2VydGlvbnODomN1cmx4LXNlbGYjanVtYmY9YzJwYS5hc3NlcnRpb25zL2MycGEuaW5ncmVkaWVudC52M2RoYXNoWCBucT5y7WEAAkP0nTOm4VRn42nQ88oY1NIA3sq44h3HpaJjdXJseCpzZWxmI2p1bWJmPWMycGEuYXNzZXJ0aW9ucy9jMnBhLmFjdGlvbnMudjJkaGFzaFgg5sfLrxtDZomWm/2Bjq8eMbn7rnHQy/YsRv+CR6G/ZsaiY3VybHgpc2VsZiNqdW1iZj1jMnBhLmFzc2VydGlvbnMvYzJwYS5oYXNoLmRhdGFkaGFzaFggFup6dRPBHRrmRliCgdUNXa29r7kl1UQ85OW0jIbgAK50Y2xhaW1fZ2VuZXJhdG9yX2luZm+jZG5hbWVvQW50aHJvcGljIEZpbGVzZ3ZlcnNpb25lMS4wLjBrc3BlY1ZlcnNpb25lMi40LjAAABA4anVtYgAAAChqdW1kYzJjcwARABCAAACqADibcQNjMnBhLnNpZ25hdHVyZQAAABAIY2JvctKEWQISogEmGCFZAgowggIGMIIBjaADAgECAhRA5aAK7sI50L64g/oGQgU9Z1UTADAKBggqhkjOPQQDAzBJMRcwFQYDVQQKEw5BbnRocm9waWMsIFBCQzEuMCwGA1UEAxMlQW50aHJvcGljIENvbnRlbnQgQ3JlZGVudGlhbHMgUm9vdCBDQTAeFw0yNjA4MDcxODQzNTZaFw0yODA4MDYxOTQzNTZaMEQxFzAVBgNVBAoTDkFudGhyb3BpYywgUEJDMSkwJwYDVQQDEyBBbnRocm9waWMgQ2xhdWRlIENvbnRlbnQgU2lnbmluZzBZMBMGByqGSM49AgEGCCqGSM49AwEHA0IABJh6CmvLUBgFFNU0vUKlOVtE6djd17L5SuwX0LemFisBM3dkd/3cyjxFA3Qo5S46fX0/ihY0VZ7mfb9KF703t5OjWDBWMA4GA1UdDwEB/wQEAwIHgDAVBgNVHSUEDjAMBgorBgEEAYPoXgIBMAwGA1UdEwEB/wQCMAAwHwYDVR0jBBgwFoAUzlHiBIFOZFsj+OPEz5o+nMHXXMIwCgYIKoZIzj0EAwMDZwAwZAIwMXMdFJ4BetLLVY7ORuE9noqbbAZOZn/aArXyTwFAZfKrPzxF2vPoJNf1+UCdg1XGAjBwX1zd9WGqYkqmL5SFqw1QySjr1zJfpJM9+1rdDwSPLMOPOjKuiXjoU/pUUeG9RwmhY3BhZFkNngAAAAAAAAAAAAAAAAAAAAAAAAAAAAAAAAAAAAAAAAAAAAAAAAAAAAAAAAAAAAAAAAAAAAAAAAAAAAAAAAAAAAAAAAAAAAAAAAAAAAAAAAAAAAAAAAAAAAAAAAAAAAAAAAAAAAAAAAAAAAAAAAAAAAAAAAAAAAAAAAAAAAAAAAAAAAAAAAAAAAAAAAAAAAAAAAAAAAAAAAAAAAAAAAAAAAAAAAAAAAAAAAAAAAAAAAAAAAAAAAAAAAAAAAAAAAAAAAAAAAAAAAAAAAAAAAAAAAAAAAAAAAAAAAAAAAAAAAAAAAAAAAAAAAAAAAAAAAAAAAAAAAAAAAAAAAAAAAAAAAAAAAAAAAAAAAAAAAAAAAAAAAAAAAAAAAAAAAAAAAAAAAAAAAAAAAAAAAAAAAAAAAAAAAAAAAAAAAAAAAAAAAAAAAAAAAAAAAAAAAAAAAAAAAAAAAAAAAAAAAAAAAAAAAAAAAAAAAAAAAAAAAAAAAAAAAAAAAAAAAAAAAAAAAAAAAAAAAAAAAAAAAAAAAAAAAAAAAAAAAAAAAAAAAAAAAAAAAAAAAAAAAAAAAAAAAAAAAAAAAAAAAAAAAAAAAAAAAAAAAAAAAAAAAAAAAAAAAAAAAAAAAAAAAAAAAAAAAAAAAAAAAAAAAAAAAAAAAAAAAAAAAAAAAAAAAAAAAAAAAAAAAAAAAAAAAAAAAAAAAAAAAAAAAAAAAAAAAAAAAAAAAAAAAAAAAAAAAAAAAAAAAAAAAAAAAAAAAAAAAAAAAAAAAAAAAAAAAAAAAAAAAAAAAAAAAAAAAAAAAAAAAAAAAAAAAAAAAAAAAAAAAAAAAAAAAAAAAAAAAAAAAAAAAAAAAAAAAAAAAAAAAAAAAAAAAAAAAAAAAAAAAAAAAAAAAAAAAAAAAAAAAAAAAAAAAAAAAAAAAAAAAAAAAAAAAAAAAAAAAAAAAAAAAAAAAAAAAAAAAAAAAAAAAAAAAAAAAAAAAAAAAAAAAAAAAAAAAAAAAAAAAAAAAAAAAAAAAAAAAAAAAAAAAAAAAAAAAAAAAAAAAAAAAAAAAAAAAAAAAAAAAAAAAAAAAAAAAAAAAAAAAAAAAAAAAAAAAAAAAAAAAAAAAAAAAAAAAAAAAAAAAAAAAAAAAAAAAAAAAAAAAAAAAAAAAAAAAAAAAAAAAAAAAAAAAAAAAAAAAAAAAAAAAAAAAAAAAAAAAAAAAAAAAAAAAAAAAAAAAAAAAAAAAAAAAAAAAAAAAAAAAAAAAAAAAAAAAAAAAAAAAAAAAAAAAAAAAAAAAAAAAAAAAAAAAAAAAAAAAAAAAAAAAAAAAAAAAAAAAAAAAAAAAAAAAAAAAAAAAAAAAAAAAAAAAAAAAAAAAAAAAAAAAAAAAAAAAAAAAAAAAAAAAAAAAAAAAAAAAAAAAAAAAAAAAAAAAAAAAAAAAAAAAAAAAAAAAAAAAAAAAAAAAAAAAAAAAAAAAAAAAAAAAAAAAAAAAAAAAAAAAAAAAAAAAAAAAAAAAAAAAAAAAAAAAAAAAAAAAAAAAAAAAAAAAAAAAAAAAAAAAAAAAAAAAAAAAAAAAAAAAAAAAAAAAAAAAAAAAAAAAAAAAAAAAAAAAAAAAAAAAAAAAAAAAAAAAAAAAAAAAAAAAAAAAAAAAAAAAAAAAAAAAAAAAAAAAAAAAAAAAAAAAAAAAAAAAAAAAAAAAAAAAAAAAAAAAAAAAAAAAAAAAAAAAAAAAAAAAAAAAAAAAAAAAAAAAAAAAAAAAAAAAAAAAAAAAAAAAAAAAAAAAAAAAAAAAAAAAAAAAAAAAAAAAAAAAAAAAAAAAAAAAAAAAAAAAAAAAAAAAAAAAAAAAAAAAAAAAAAAAAAAAAAAAAAAAAAAAAAAAAAAAAAAAAAAAAAAAAAAAAAAAAAAAAAAAAAAAAAAAAAAAAAAAAAAAAAAAAAAAAAAAAAAAAAAAAAAAAAAAAAAAAAAAAAAAAAAAAAAAAAAAAAAAAAAAAAAAAAAAAAAAAAAAAAAAAAAAAAAAAAAAAAAAAAAAAAAAAAAAAAAAAAAAAAAAAAAAAAAAAAAAAAAAAAAAAAAAAAAAAAAAAAAAAAAAAAAAAAAAAAAAAAAAAAAAAAAAAAAAAAAAAAAAAAAAAAAAAAAAAAAAAAAAAAAAAAAAAAAAAAAAAAAAAAAAAAAAAAAAAAAAAAAAAAAAAAAAAAAAAAAAAAAAAAAAAAAAAAAAAAAAAAAAAAAAAAAAAAAAAAAAAAAAAAAAAAAAAAAAAAAAAAAAAAAAAAAAAAAAAAAAAAAAAAAAAAAAAAAAAAAAAAAAAAAAAAAAAAAAAAAAAAAAAAAAAAAAAAAAAAAAAAAAAAAAAAAAAAAAAAAAAAAAAAAAAAAAAAAAAAAAAAAAAAAAAAAAAAAAAAAAAAAAAAAAAAAAAAAAAAAAAAAAAAAAAAAAAAAAAAAAAAAAAAAAAAAAAAAAAAAAAAAAAAAAAAAAAAAAAAAAAAAAAAAAAAAAAAAAAAAAAAAAAAAAAAAAAAAAAAAAAAAAAAAAAAAAAAAAAAAAAAAAAAAAAAAAAAAAAAAAAAAAAAAAAAAAAAAAAAAAAAAAAAAAAAAAAAAAAAAAAAAAAAAAAAAAAAAAAAAAAAAAAAAAAAAAAAAAAAAAAAAAAAAAAAAAAAAAAAAAAAAAAAAAAAAAAAAAAAAAAAAAAAAAAAAAAAAAAAAAAAAAAAAAAAAAAAAAAAAAAAAAAAAAAAAAAAAAAAAAAAAAAAAAAAAAAAAAAAAAAAAAAAAAAAAAAAAAAAAAAAAAAAAAAAAAAAAAAAAAAAAAAAAAAAAAAAAAAAAAAAAAAAAAAAAAAAAAAAAAAAAAAAAAAAAAAAAAAAAAAAAAAAAAAAAAAAAAAAAAAAAAAAAAAAAAAAAAAAAAAAAAAAAAAAAAAAAAAAAAAAAAAAAAAAAAAAAAAAAAAAAAAAAAAAAAAAAAAAAAAAAAAAAAAAAAAAAAAAAAAAAAAAAAAAAAAAAAAAAAAAAAAAAAAAAAAAAAAAAAAAAAAAAAAAAAAAAAAAAAAAAAAAAAAAAAAAAAAAAAAAAAAAAAAAAAAAAAAAAAAAAAAAAAAAAAAAAAAAAAAAAAAAAAAAAAAAAAAAAAAAAAAAAAAAAAAAAAAAAAAAAAAAAAAAAAAAAAAAAAAAAAAAAAAAAAAAAAAAAAAAAAAAAAAAAAAAAAAAAAAAAAAAAAAAAAAAAAAAAAAAAAAAAAAAAAAAAAAAAAAAAAAAAAAAAAAAAAAAAAAAAAAAAAAAAAAAAAAAAAAAAAAAAAAAAAAAAAAAAAAAAAAAAAAAAAAAAAAAAAAAAAAAAAAAAAAAAAAAAAAAAAAAAAAAAAAAAAAAAAAAAAAAAAAAAAAAAAAAAAAAAAAAAAAAAAAAAAAAAAAAAAAAAAAAAAAAAAAAAAAAAAAAAAAAAAAAAAAAAAAAAAAAAAAAAAAAAAAAAAAAAAAAAAAAAAAAAAAAAAAAAAAAAAAAAAAAAAAAAAAAAAAAAAAAAAAAAAAAAAAAAAAAAAAAAAAAAAAAAAAAAAAAAAAAAAAAAAAAAAAAAAAAAAAAAAAAAAAAAAAAAAAAAAAAAAAAAAAAAAAAAAAAAAAAAAAAAAAAAAAAAAAAAAAAAAAAAAAAAAAAAAAAAAAAAAAAAAAAAAAAAAAAAAAAAAAAAAAAAAAAAAAAAAAAAAAAAAAAAAAAAAAAAAAAAAAAAAAAAAAAAAAAAAAAAAAAAAAAAAAAAAAAAAAAAAAAAAAAAAAAAAAAAAAAAAAAAAAAAAAAAAAAAAAAAAAAAAAAAAAAAAAAAAAAAAAAAAAAAAAAAAAAAAAAAAAAAAAAAAAAAAAAAAAAAAAAAAAAAAAAAAAAAAAAAAAAAAAAAAAAAAAAAAAAAAAAAAAAAAAAAAAAAAAAAAAAAAAAAAAAAAAAAAAAAAAAAAAAAAAAAAAAAAAAAAAAAAAAAAAAAAAAAAAAAAAAAAAAAAAAAAAAAAAAAAAAAAAAAAAAAAAAAAAAAAAAAAAAAAAAAAAAAAAAAAAAAAAAAAAAAAAAAAAAAAAAAAAAAAAAAAAAAAAAAAAAAAAAAAAAAAAAAAAAAAAAAAAAAAAAAAAAAAAAAAAAAAAAAAAAAAAAAAAAAAAAAAAAAAAAAAAAAAAAAAAAAAAAAAAAAAAAAAAAAAAAAAAAAAAAAAAAAAAAAAAAAAAAAAAAAAAAAAAAAAAAAAAAAAAAAAAAAAAAAAAAAAAAAAAAAAAAAAAAAAAAAAAAAAAAAAAAAAAAAAAAAAAAAAAAAAAAAAAAAAAAAAAAAAAAAAAAAAAAAAAAAAAAAAAAAAAAAAAAAAAAAAAAAAAAAAAAAAAAAAAAAAAAAAAAAAAAAAAAAAAAAAAAAAAAAAAAAAAAAAAAAAAAAAAAAAAAAAAAAAAAAAAAAAAAAAAAAAAAAAAAAAAAAAAAAAAAAAAAAAAAAAAAAAAAAAAAAAAAAAAAAAAAAAAAAAAAAAAAAAAAAAAAAAAAAAAAAAAAAAAAAAAAAAAAAAAAAAAAAAAAAAAAAAAAAAAAAAAAAAAAAAAAAAAAAAAAAAAAAAAAAAAAAAAAAAAAAAAAAAAAAAAAAAAAAAAAAAAAAAAAAAAAAAAAAAAAAAAAAAAAAAAAAAAAAAAAAAAAAAAAAAAAAPZYQHCs/QshMv8QXcdLbVJnEWONBWuZ5As8bD9FbkIO17Q3oW8zQjjVz4ThKUPhKnxhHUvHJWLfNTZGYRE67YX/WGc=</c2pa:manifest></metadata><path transform="translate(0,0)" fill="#0B0D12" fill-rule="evenodd" d="M131.38 274.25C132.47 273.94 134.22 273.29 135.25 272.81C137.01 271.97 151.19 263.98 157.50 260.26C159.08 259.33 161.11 258.16 162.00 257.66C162.89 257.16 164.07 256.48 164.62 256.15C165.18 255.83 168.21 254.06 171.38 252.24C174.54 250.42 177.56 248.65 178.09 248.31C178.63 247.98 180.54 246.86 182.34 245.82C184.15 244.79 186.81 243.24 188.25 242.38C191.10 240.68 193.73 239.16 195.50 238.18C196.12 237.84 197.75 236.91 199.12 236.11C200.50 235.32 202.83 233.98 204.30 233.15C205.78 232.31 208.36 230.84 210.05 229.88C211.74 228.91 213.29 228.05 213.49 227.97C213.70 227.88 215.79 226.71 218.12 225.37C220.46 224.02 224.57 221.67 227.25 220.13C235.33 215.50 237.48 213.97 240.01 211.09C244.40 206.09 246.66 200.63 247.25 193.62C247.61 189.34 247.44 89.64 247.06 86.25C246.23 78.76 242.45 72.22 235.87 66.91C229.32 61.64 227.25 60.29 227.25 61.31C227.25 61.48 227.22 80.47 227.18 103.50C227.10 145.38 227.10 145.38 226.55 147.38C224.45 154.96 218.88 160.97 209.75 165.50C209.13 165.81 207.72 166.59 206.62 167.25C204.50 168.51 199.34 171.46 194.38 174.24C192.72 175.16 187.30 178.25 182.31 181.09C177.32 183.94 173.07 186.34 172.86 186.42C172.60 186.52 171.80 185.88 170.40 184.47C163.57 177.56 152.82 176.92 145.88 183.00C143.36 185.21 141.64 187.52 141.03 189.55C140.89 190.00 140.60 190.88 140.37 191.50C139.78 193.11 139.94 199.42 140.60 200.88C142.10 204.14 142.78 205.22 144.49 207.05C147.13 209.89 149.13 211.15 153.00 212.42C154.74 213.00 155.16 213.03 158.88 212.94C164.81 212.80 166.48 212.15 179.75 204.75C182.08 203.45 186.52 201.01 188.88 199.75C192.85 197.61 196.51 195.59 198.64 194.36C199.94 193.61 201.04 193.00 201.09 193.00C201.15 193.00 202.40 192.32 203.87 191.50C205.35 190.68 206.61 190.00 206.66 190.00C206.72 190.00 207.18 189.74 207.69 189.41C208.21 189.09 210.54 187.78 212.88 186.50C215.21 185.22 219.20 183.00 221.73 181.55C225.27 179.54 226.43 178.99 226.73 179.18C227.07 179.40 227.12 180.34 227.12 186.42C227.12 193.40 227.12 193.40 226.20 195.27C224.51 198.69 222.48 200.24 213.12 205.27C209.05 207.46 206.18 209.03 204.25 210.13C203.08 210.80 201.34 211.76 200.38 212.26C195.58 214.79 190.25 217.64 181.88 222.19C171.26 227.94 171.42 227.88 167.12 227.88C162.65 227.88 163.10 228.02 155.75 224.22C152.79 222.69 148.24 220.35 145.62 219.00C143.01 217.66 140.03 216.12 139.00 215.57C135.97 213.96 130.26 210.99 119.38 205.37C117.04 204.16 114.28 202.71 113.25 202.14C112.22 201.57 111.05 200.94 110.65 200.74C109.43 200.13 109.23 199.58 109.64 198.01C110.13 196.16 110.10 192.19 109.60 190.48C108.07 185.28 104.62 181.60 98.95 179.15C94.10 177.04 88.47 177.48 83.69 180.33C76.25 184.77 73.42 194.34 77.26 202.05C79.90 207.35 83.01 209.63 99.50 218.36C105.28 221.42 107.64 222.69 111.12 224.57C112.64 225.39 115.73 227.02 118.00 228.20C120.27 229.37 124.13 231.38 126.58 232.66C129.04 233.94 134.80 236.86 139.40 239.16C148.62 243.77 148.66 243.80 146.56 244.84C145.91 245.17 143.70 246.36 141.65 247.48C132.88 252.29 131.24 253.00 128.80 253.00C127.05 253.00 123.76 252.08 122.09 251.13C121.42 250.75 120.54 250.26 120.13 250.04C119.72 249.83 117.92 248.76 116.13 247.66C114.34 246.57 111.58 244.92 110.00 244.01C108.42 243.09 106.45 241.90 105.62 241.37C104.80 240.83 102.66 239.54 100.88 238.49C97.04 236.24 86.72 229.98 84.74 228.71C83.98 228.23 82.18 227.12 80.74 226.25C77.89 224.54 76.39 223.59 73.47 221.64C66.48 216.99 64.74 215.14 63.52 211.12C63.00 209.39 62.99 209.22 63.06 183.75C63.13 154.43 62.71 157.82 66.41 157.11C71.22 156.19 75.85 152.32 78.15 147.30C79.23 144.94 79.90 141.21 79.54 139.55C79.40 138.90 79.22 137.88 79.13 137.28C78.63 133.61 74.55 128.23 70.68 126.12C65.65 123.38 59.61 123.37 54.38 126.09C50.47 128.13 46.45 132.75 44.98 136.90C43.71 140.50 43.76 138.28 43.76 185.53L43.75 229.69L44.71 230.55C45.84 231.58 48.18 233.11 51.62 235.10C53.00 235.89 55.02 237.10 56.12 237.79C57.23 238.49 58.58 239.30 59.12 239.60C60.68 240.44 65.03 243.00 66.00 243.64C66.48 243.96 69.69 245.84 73.12 247.82C78.79 251.08 96.33 261.23 102.25 264.68C103.56 265.44 106.71 267.29 109.25 268.80C119.95 275.13 124.32 276.21 131.38 274.25ZM25.85 218.85C25.93 218.64 26.00 200.04 26.00 177.52C26.00 138.19 26.02 136.52 26.47 135.22C27.56 132.03 29.48 129.41 31.96 127.70C34.49 125.96 45.44 118.60 46.57 117.89C47.23 117.47 48.64 116.50 49.70 115.75C50.76 114.99 53.18 113.36 55.08 112.12C58.57 109.86 66.33 104.69 69.72 102.38C70.73 101.69 72.46 100.42 73.57 99.56C76.03 97.65 76.29 97.64 77.97 99.35C80.58 101.99 85.18 103.75 89.45 103.75C96.64 103.75 102.92 99.22 105.41 92.23C106.35 89.60 106.40 84.66 105.51 82.38C103.64 77.53 99.52 73.42 94.83 71.70C93.65 71.28 92.63 71.15 89.50 71.06C83.91 70.90 82.19 71.53 72.79 77.15C69.59 79.06 65.94 81.24 64.68 81.98C53.05 88.84 39.87 96.88 36.71 99.03C35.93 99.57 35.23 100.00 35.15 100.00C35.02 100.00 33.33 101.04 28.57 104.07C25.93 105.73 26.14 106.26 26.06 97.50C25.99 90.22 26.01 89.81 26.53 88.38C27.65 85.26 29.07 83.84 33.88 81.00C35.80 79.86 37.94 78.59 38.62 78.18C39.31 77.76 40.61 77.00 41.50 76.50C42.39 76.00 45.88 73.97 49.25 72.00C52.62 70.03 56.22 67.96 57.25 67.39C58.28 66.82 59.57 66.05 60.12 65.68C60.67 65.31 61.20 65.00 61.31 65.00C61.42 65.00 62.25 64.55 63.16 64.00C64.06 63.45 64.85 63.00 64.91 63.00C64.97 63.00 67.63 61.50 70.82 59.67C74.01 57.83 77.30 56.03 78.12 55.65C80.10 54.74 83.89 54.30 86.14 54.71C86.99 54.87 87.92 55.00 88.21 55.00C88.50 55.00 90.00 55.50 91.55 56.11C95.92 57.82 98.13 58.83 109.75 64.44C114.11 66.54 121.12 69.81 127.00 72.50C128.44 73.16 130.75 74.22 132.12 74.86C133.50 75.51 135.19 76.30 135.88 76.62C136.56 76.94 137.74 77.48 138.50 77.81C139.26 78.15 140.72 78.81 141.75 79.27C145.23 80.82 145.62 81.20 145.24 82.55C145.11 83.00 145.00 84.89 145.00 86.75C145.01 90.12 145.01 90.13 145.96 92.27C150.21 101.81 159.96 105.63 168.91 101.25C172.78 99.36 175.78 95.86 177.40 91.36C178.51 88.30 178.47 83.28 177.31 80.38C174.98 74.54 172.45 72.17 164.50 68.38C162.92 67.62 161.21 66.78 160.70 66.50C160.19 66.23 159.67 66.00 159.53 66.00C159.40 66.00 157.73 65.25 155.83 64.34C150.50 61.79 148.03 60.62 146.12 59.75C145.16 59.30 143.53 58.55 142.50 58.07C141.47 57.59 140.01 56.91 139.25 56.57C138.49 56.22 136.58 55.32 135.00 54.56C133.42 53.81 131.11 52.71 129.88 52.12C128.64 51.54 126.28 50.42 124.62 49.63C122.97 48.84 120.50 47.65 119.12 47.00C115.65 45.35 106.85 41.09 105.54 40.43C103.39 39.34 103.44 39.29 110.62 35.19C117.38 31.34 116.95 31.56 119.37 30.71C123.69 29.18 127.84 30.13 134.06 34.09C134.78 34.55 136.72 35.64 138.38 36.51C140.03 37.38 143.70 39.42 146.55 41.04C149.39 42.67 151.77 44.00 151.83 44.00C151.89 44.00 153.56 44.92 155.53 46.04C157.51 47.16 159.74 48.41 160.50 48.82C161.26 49.23 163.28 50.35 165.00 51.32C166.72 52.29 169.47 53.83 171.12 54.74C172.78 55.66 174.58 56.69 175.13 57.04C175.68 57.40 177.65 58.50 179.51 59.50C185.79 62.88 187.67 64.46 189.28 67.68C190.12 69.38 190.12 69.38 190.19 97.79C190.27 128.81 190.35 127.00 188.90 127.00C188.14 127.00 185.02 128.11 183.42 128.94C181.70 129.84 177.82 133.74 176.90 135.50C172.71 143.46 175.40 152.78 183.34 157.86C186.53 159.90 192.75 160.70 196.07 159.50C203.33 156.87 208.29 150.84 209.23 143.50C209.46 141.69 209.52 130.37 209.46 95.88L209.38 50.62L207.69 49.50C206.76 48.88 205.36 48.04 204.57 47.63C203.33 47.00 201.59 46.01 198.12 44.00C197.71 43.76 196.53 43.06 195.50 42.45C194.47 41.84 192.61 40.80 191.38 40.13C190.14 39.47 188.45 38.50 187.62 37.99C186.80 37.48 185.51 36.72 184.75 36.31C183.99 35.89 180.80 34.08 177.66 32.27C174.51 30.47 171.91 29.00 171.88 29.00C171.85 29.00 169.81 27.86 167.35 26.47C160.76 22.74 159.31 21.93 157.38 20.87C156.41 20.35 155.33 19.72 154.96 19.46C154.60 19.21 154.22 19.00 154.14 19.00C154.05 19.00 152.83 18.34 151.42 17.53C150.02 16.72 148.14 15.66 147.25 15.18C146.36 14.70 144.22 13.54 142.50 12.61C134.24 8.13 133.02 7.60 128.62 6.64C123.32 5.46 117.36 7.18 108.60 12.39C106.57 13.60 105.68 14.11 104.06 15.03C103.01 15.62 99.08 17.91 98.50 18.27C98.29 18.39 97.34 18.91 96.38 19.40C95.41 19.90 93.89 20.78 93.00 21.36C92.11 21.93 90.70 22.78 89.88 23.24C87.96 24.31 80.41 28.74 78.12 30.13C77.16 30.72 74.07 32.52 71.25 34.13C64.95 37.72 59.31 41.04 57.57 42.16C56.85 42.62 56.20 43.00 56.13 43.00C56.06 43.00 54.51 43.88 52.69 44.96C50.87 46.04 46.45 48.61 42.88 50.68C39.30 52.74 34.01 55.81 31.12 57.50C28.24 59.19 25.65 60.70 25.38 60.85C17.22 65.45 14.20 67.83 11.26 71.99C8.73 75.57 7.76 77.64 6.56 82.12C5.89 84.62 5.89 84.62 5.80 136.38C5.70 199.76 5.52 195.88 8.86 203.59C11.00 208.52 14.77 212.43 22.32 217.51C24.96 219.29 25.59 219.53 25.85 218.85ZM154.95 202.42C151.47 201.08 149.88 198.98 149.90 195.74C149.94 188.83 159.08 186.01 163.34 191.61C165.09 193.90 165.36 195.60 164.37 198.08C162.82 201.93 158.65 203.85 154.95 202.42ZM90.81 201.19C84.83 198.89 84.13 191.33 89.60 188.07C92.57 186.30 95.41 186.68 98.06 189.20C100.92 191.93 101.29 195.47 99.02 198.55C97.04 201.24 93.72 202.31 90.81 201.19ZM189.60 150.44C186.71 149.15 185.08 147.35 184.39 144.65C183.97 143.02 184.04 142.48 184.94 140.56C187.71 134.66 195.31 134.70 198.12 140.64C199.14 142.80 199.19 143.72 198.39 145.75C196.84 149.70 192.79 151.86 189.60 150.44ZM59.62 147.28C54.67 144.90 53.53 139.30 57.31 135.83C61.06 132.39 66.13 133.01 68.97 137.26C72.74 142.91 65.87 150.28 59.62 147.28ZM87.38 94.11C84.43 92.64 83.01 90.39 83.00 87.15C83.00 83.67 84.32 81.67 87.35 80.53C92.81 78.49 98.51 84.00 96.48 89.37C94.93 93.49 90.64 95.72 87.38 94.11ZM160.08 93.49C157.96 93.07 155.87 91.34 154.84 89.12C152.86 84.90 156.63 79.00 161.32 79.00C164.19 79.00 167.24 81.44 168.03 84.36C169.36 89.26 164.86 94.43 160.08 93.49Z"/></svg>